<svg id="Layer_1" data-name="Layer 1" xmlns="http://www.w3.org/2000/svg" viewBox="0 0 1021 396.3"><defs><style>.cls-1{fill:#49c5fe;}.cls-2{fill:none;stroke:#49c5fe;stroke-miterlimit:10;stroke-width:4.5px;}.cls-3{fill:#5dc1ed;}</style></defs><title>neo Live logo source</title><g id="logo_neo" data-name="logo neo"><path id="Shape" class="cls-1" d="M1156.8,454.5V437.1H1150v-3.5h17.9v3.5h-6.8v17.4Zm14.7,0v-21h6.8l3.9,14.3,4-14.3h6.8v21h-4.3V438.2l-4.3,16.3h-4.3l-4.3-16.3v16.3Z" transform="translate(-172 -166.5)"/><path class="cls-1" d="M1039,166.6c-42.9,0-79.7,13.4-111.9,41.2-27.4,23.7-48.3,54.9-68.7,85.1-44.3,65.6-86,127.3-188.9,127.3-49.8.3-93.2-33.6-104.7-81.6h226a31.8,31.8,0,0,0,32-33.3v-.4c-.3-4-.8-8-1.4-12a150.4,150.4,0,0,0-93.2-115,157,157,0,0,0-167.6,32.4,147.5,147.5,0,0,0-44.8,99.6L504.9,294c-20.5-30.2-41.3-61.4-68.7-85.2-32.2-27.6-69-41.1-112-41.1-73,0-133,47.7-148.3,115.2-.2.8-.5,1.5-.7,2.4s-.6,4.1-1,6.1-1,5.9-1.4,8.9-.1,3.1-.3,4.8c-.2,3.3-.5,6.7-.5,9.9v2.2a73,73,0,0,0,.2,8A146.5,146.5,0,0,0,184,374.3a25,25,0,0,0,1.5,3.8h0a145.9,145.9,0,0,0,16,27.2L251,465.5h57.8l-72.7-88.4a100.7,100.7,0,0,1-15.6-32.5,118.8,118.8,0,0,1-3.7-27.2c0-57.5,48.2-104.1,107.4-104.1,31.6,0,57.6,9.6,81.1,29.9s41.3,46.9,60.8,76.2c23.4,34.7,47.5,70.3,82.3,98.6,8.4,6.7,34.4,27.5,70.6,39.2h.2l2.8.9a155.6,155.6,0,0,0,47.5,7.4c57.3,0,104.8-16.1,145.2-48.6,34.9-28.2,59-63.9,82.4-98.6,19.5-29.2,38.1-56.6,60.8-76.2s49.5-29.9,81-29.9c59.3,0,107.5,46.6,107.5,104.2s-48.2,104.1-107.5,104.1c-51.7,0-115.2-36.6-107.4-129.8l-41.9,61c9,68.2,75.2,113.8,149.4,113.8,85,0,154-66.9,154-149.5S1124,166.6,1039,166.6ZM668.9,211.2c50.5,0,94.1,33.7,105.2,81.6h-210C575.6,244.7,619.1,210.9,668.9,211.2Z" transform="translate(-172 -166.5)"/></g><line class="cls-2" x1="707.2" y1="366.5" x2="956.1" y2="366.5"/><path class="cls-3" d="M533.2,556h26.3v5.8H526.7V506.4h6.5Z" transform="translate(-172 -166.5)"/><path class="cls-3" d="M629.9,502a4.5,4.5,0,0,1,1.4,3.3,4.4,4.4,0,0,1-1.4,3.4,4.5,4.5,0,0,1-3.4,1.3,4.9,4.9,0,0,1-3.5-1.3,4.7,4.7,0,0,1-1.3-3.4A4.4,4.4,0,0,1,623,502a5,5,0,0,1,3.5-1.4A4.9,4.9,0,0,1,629.9,502Zm-.2,59.8h-6.4V520.9h6.4Z" transform="translate(-172 -166.5)"/><path class="cls-3" d="M734.5,520.9l-19.3,41.9h-2.3l-19.3-41.9h6.8l13.7,30.9,13.5-30.9Z" transform="translate(-172 -166.5)"/><path class="cls-3" d="M834.5,543.4H802.3a13.9,13.9,0,0,0,4.7,9.7,14.7,14.7,0,0,0,10.2,3.7c4.7,0,8.8-1.9,12.5-5.6l3.8,4.4a21.5,21.5,0,0,1-16.4,7.2,21,21,0,0,1-15.4-6.2,20.3,20.3,0,0,1-6.3-15.2,21.2,21.2,0,0,1,6.1-15.2,20.1,20.1,0,0,1,14.9-6.2,18.2,18.2,0,0,1,13.3,5.2,18,18,0,0,1,5.3,13.3A26.3,26.3,0,0,1,834.5,543.4Zm-27.2-14.3a14.8,14.8,0,0,0-4.8,8.5h25.9a11.6,11.6,0,0,0-3.6-8.6,12.3,12.3,0,0,0-8.6-3.1A13.5,13.5,0,0,0,807.3,529.1Z" transform="translate(-172 -166.5)"/><line class="cls-2" x1="65.3" y1="366.5" x2="310.7" y2="366.5"/></svg>